{
    "accessors": {
        "accessor_102": {
            "bufferView": "bufferView_218",
            "byteOffset": 144,
            "byteStride": 0,
            "componentType": 5123,
            "count": 36,
            "type": "SCALAR"
        },
        "accessor_104": {
            "bufferView": "bufferView_219",
            "byteOffset": 1536,
            "byteStride": 12,
            "componentType": 5126,
            "count": 32,
            "max": [
                337.042,
                -10.0482,
                85.2194
            ],
            "min": [
                176.187,
                -165.731,
                2.93461
            ],
            "type": "VEC3"
        },
        "accessor_106": {
            "bufferView": "bufferView_219",
            "byteOffset": 1920,
            "byteStride": 12,
            "componentType": 5126,
            "count": 32,
            "max": [
                0.857872,
                0.748941,
                1
            ],
            "min": [
                -0.857868,
                -0.748944,
                -1
            ],
            "type": "VEC3"
        },
        "accessor_108": {
            "bufferView": "bufferView_219",
            "byteOffset": 2304,
            "byteStride": 8,
            "componentType": 5126,
            "count": 32,
            "max": [
                0.974937,
                0.272877
            ],
            "min": [
                0.225172,
                0.00123399
            ],
            "type": "VEC2"
        },
        "accessor_129": {
            "bufferView": "bufferView_218",
            "byteOffset": 216,
            "byteStride": 0,
            "componentType": 5123,
            "count": 24,
            "type": "SCALAR"
        },
        "accessor_131": {
            "bufferView": "bufferView_219",
            "byteOffset": 2560,
            "byteStride": 12,
            "componentType": 5126,
            "count": 18,
            "max": [
                483.88,
                113.71,
                83.6838
            ],
            "min": [
                0,
                -244.545,
                0
            ],
            "type": "VEC3"
        },
        "accessor_133": {
            "bufferView": "bufferView_219",
            "byteOffset": 2776,
            "byteStride": 12,
            "componentType": 5126,
            "count": 18,
            "max": [
                0.818172,
                0.479535,
                1
            ],
            "min": [
                -0.818166,
                -0.479532,
                -1
            ],
            "type": "VEC3"
        },
        "accessor_135": {
            "bufferView": "bufferView_219",
            "byteOffset": 2992,
            "byteStride": 8,
            "componentType": 5126,
            "count": 18,
            "max": [
                0.508248,
                0.537827
            ],
            "min": [
                0.0012143,
                0.00123501
            ],
            "type": "VEC2"
        },
        "accessor_156": {
            "bufferView": "bufferView_218",
            "byteOffset": 336,
            "byteStride": 0,
            "componentType": 5123,
            "count": 36,
            "type": "SCALAR"
        },
        "accessor_158": {
            "bufferView": "bufferView_219",
            "byteOffset": 3904,
            "byteStride": 12,
            "componentType": 5126,
            "count": 32,
            "max": [
                168.314,
                -9.09089,
                115.642
            ],
            "min": [
                151.243,
                -25.4322,
                99.0522
            ],
            "type": "VEC3"
        },
        "accessor_160": {
            "bufferView": "bufferView_219",
            "byteOffset": 4288,
            "byteStride": 12,
            "componentType": 5126,
            "count": 32,
            "max": [
                0.85524,
                0.861461,
                1
            ],
            "min": [
                -0.85524,
                -0.861462,
                -1
            ],
            "type": "VEC3"
        },
        "accessor_162": {
            "bufferView": "bufferView_219",
            "byteOffset": 4672,
            "byteStride": 8,
            "componentType": 5126,
            "count": 32,
            "max": [
                0.859827,
                0.074533
            ],
            "min": [
                0.00183304,
                0.00162899
            ],
            "type": "VEC2"
        },
        "accessor_183": {
            "bufferView": "bufferView_218",
            "byteOffset": 408,
            "byteStride": 0,
            "componentType": 5123,
            "count": 6,
            "type": "SCALAR"
        },
        "accessor_185": {
            "bufferView": "bufferView_219",
            "byteOffset": 4928,
            "byteStride": 12,
            "componentType": 5126,
            "count": 6,
            "max": [
                423.576,
                37.8731,
                83.6838
            ],
            "min": [
                0,
                -244.545,
                0
            ],
            "type": "VEC3"
        },
        "accessor_187": {
            "bufferView": "bufferView_219",
            "byteOffset": 5000,
            "byteStride": 12,
            "componentType": 5126,
            "count": 6,
            "max": [
                -0.410231,
                -0.699921,
                0.584655
            ],
            "min": [
                -0.410231,
                -0.699922,
                0.584653
            ],
            "type": "VEC3"
        },
        "accessor_189": {
            "bufferView": "bufferView_219",
            "byteOffset": 5072,
            "byteStride": 8,
            "componentType": 5126,
            "count": 6,
            "max": [
                0.267717,
                0.758376
            ],
            "min": [
                0.00205764,
                0.022874
            ],
            "type": "VEC2"
        },
        "accessor_21": {
            "bufferView": "bufferView_218",
            "byteOffset": 264,
            "byteStride": 0,
            "componentType": 5123,
            "count": 36,
            "type": "SCALAR"
        },
        "accessor_210": {
            "bufferView": "bufferView_218",
            "byteOffset": 420,
            "byteStride": 0,
            "componentType": 5123,
            "count": 6,
            "type": "SCALAR"
        },
        "accessor_212": {
            "bufferView": "bufferView_219",
            "byteOffset": 5120,
            "byteStride": 12,
            "componentType": 5126,
            "count": 6,
            "max": [
                483.88,
                113.71,
                83.6838
            ],
            "min": [
                60.3042,
                -168.708,
                0
            ],
            "type": "VEC3"
        },
        "accessor_214": {
            "bufferView": "bufferView_219",
            "byteOffset": 5192,
            "byteStride": 12,
            "componentType": 5126,
            "count": 6,
            "max": [
                0.410231,
                0.699922,
                0.584654
            ],
            "min": [
                0.410231,
                0.699921,
                0.584654
            ],
            "type": "VEC3"
        },
        "accessor_216": {
            "bufferView": "bufferView_219",
            "byteOffset": 5264,
            "byteStride": 8,
            "componentType": 5126,
            "count": 6,
            "max": [
                0.538225,
                0.758376
            ],
            "min": [
                0.272565,
                0.022874
            ],
            "type": "VEC2"
        },
        "accessor_23": {
            "bufferView": "bufferView_219",
            "byteOffset": 3136,
            "byteStride": 12,
            "componentType": 5126,
            "count": 24,
            "max": [
                429.233,
                47.5248,
                99.0522
            ],
            "min": [
                54.6474,
                -178.359,
                83.6838
            ],
            "type": "VEC3"
        },
        "accessor_25": {
            "bufferView": "bufferView_219",
            "byteOffset": 3424,
            "byteStride": 12,
            "componentType": 5126,
            "count": 24,
            "max": [
                0.862717,
                0.862734,
                1
            ],
            "min": [
                -0.862735,
                -0.862735,
                -1
            ],
            "type": "VEC3"
        },
        "accessor_27": {
            "bufferView": "bufferView_219",
            "byteOffset": 3712,
            "byteStride": 8,
            "componentType": 5126,
            "count": 24,
            "max": [
                0.702676,
                0.471292
            ],
            "min": [
                0.18093,
                0.00136501
            ],
            "type": "VEC2"
        },
        "accessor_48": {
            "bufferView": "bufferView_218",
            "byteOffset": 0,
            "byteStride": 0,
            "componentType": 5123,
            "count": 36,
            "type": "SCALAR"
        },
        "accessor_50": {
            "bufferView": "bufferView_219",
            "byteOffset": 0,
            "byteStride": 12,
            "componentType": 5126,
            "count": 24,
            "max": [
                197.094,
                -40.8977,
                110.323
            ],
            "min": [
                184.554,
                -52.8326,
                66.066
            ],
            "type": "VEC3"
        },
        "accessor_52": {
            "bufferView": "bufferView_219",
            "byteOffset": 288,
            "byteStride": 12,
            "componentType": 5126,
            "count": 24,
            "max": [
                0.873005,
                0.872995,
                1
            ],
            "min": [
                -0.873008,
                -0.872999,
                -1
            ],
            "type": "VEC3"
        },
        "accessor_54": {
            "bufferView": "bufferView_219",
            "byteOffset": 576,
            "byteStride": 8,
            "componentType": 5126,
            "count": 24,
            "max": [
                0.987907,
                0.054283
            ],
            "min": [
                0.00146415,
                0.00107902
            ],
            "type": "VEC2"
        },
        "accessor_75": {
            "bufferView": "bufferView_218",
            "byteOffset": 72,
            "byteStride": 0,
            "componentType": 5123,
            "count": 36,
            "type": "SCALAR"
        },
        "accessor_77": {
            "bufferView": "bufferView_219",
            "byteOffset": 768,
            "byteStride": 12,
            "componentType": 5126,
            "count": 24,
            "max": [
                295.665,
                -117.398,
                39.4168
            ],
            "min": [
                247.206,
                -155.34,
                18.4202
            ],
            "type": "VEC3"
        },
        "accessor_79": {
            "bufferView": "bufferView_219",
            "byteOffset": 1056,
            "byteStride": 12,
            "componentType": 5126,
            "count": 24,
            "max": [
                0.87324,
                0.873234,
                1
            ],
            "min": [
                -0.873227,
                -0.873224,
                -1
            ],
            "type": "VEC3"
        },
        "accessor_81": {
            "bufferView": "bufferView_219",
            "byteOffset": 1344,
            "byteStride": 8,
            "componentType": 5126,
            "count": 24,
            "max": [
                0.878443,
                0.131651
            ],
            "min": [
                0.229827,
                0.043154
            ],
            "type": "VEC2"
        }
    },
    "animations": {},
    "asset": {
        "generator": "collada2gltf@cf6371beb0bdc18ba603378d5e40c966da53d385",
        "premultipliedAlpha": true,
        "profile": {
            "api": "WebGL",
            "version": "1.0.2"
        },
        "version": "1.0"
    },
    "bufferViews": {
        "bufferView_218": {
            "buffer": "\\Users\\14237\\Desktop\\dashuiba",
            "byteLength": 432,
            "byteOffset": 0,
            "target": 34963
        },
        "bufferView_219": {
            "buffer": "\\Users\\14237\\Desktop\\dashuiba",
            "byteLength": 5312,
            "byteOffset": 432,
            "target": 34962
        }
    },
    "buffers": {
        "\\Users\\14237\\Desktop\\dashuiba": {
            "byteLength": 5744,
            "type": "arraybuffer",
            "uri": "data:application/octet-stream;base64,"
        }
    },
    "cameras": {
        "ID1": {
            "name": "skp_camera_Last_Saved_SketchUp_View",
            "perspective": {
                "aspect_ratio": 0,
                "yfov": 0.610865,
                "zfar": 25.4,
                "znear": 0.0254
            },
            "type": "perspective"
        }
    },
    "images": {
        "ID61": {
            "name": "ID61",
            "uri": "dashuiba/__auto_1.jpg"
        },
        "ID8": {
            "name": "ID8",
            "uri": "dashuiba/__auto_.jpg"
        }
    },
    "materials": {
        "ID60": {
            "name": "__auto_1",
            "technique": "technique0",
            "values": {
                "diffuse": "texture_ID61"
            }
        },
        "ID7": {
            "name": "__auto_",
            "technique": "technique0",
            "values": {
                "diffuse": "texture_ID8"
            }
        }
    },
    "meshes": {
        "ID18": {
            "name": "ID18",
            "primitives": [
                {
                    "attributes": {
                        "NORMAL": "accessor_52",
                        "POSITION": "accessor_50",
                        "TEXCOORD_0": "accessor_54"
                    },
                    "indices": "accessor_48",
                    "material": "ID7",
                    "mode": 4
                }
            ]
        },
        "ID26": {
            "name": "ID26",
            "primitives": [
                {
                    "attributes": {
                        "NORMAL": "accessor_79",
                        "POSITION": "accessor_77",
                        "TEXCOORD_0": "accessor_81"
                    },
                    "indices": "accessor_75",
                    "material": "ID7",
                    "mode": 4
                }
            ]
        },
        "ID34": {
            "name": "ID34",
            "primitives": [
                {
                    "attributes": {
                        "NORMAL": "accessor_106",
                        "POSITION": "accessor_104",
                        "TEXCOORD_0": "accessor_108"
                    },
                    "indices": "accessor_102",
                    "material": "ID7",
                    "mode": 4
                }
            ]
        },
        "ID42": {
            "name": "ID42",
            "primitives": [
                {
                    "attributes": {
                        "NORMAL": "accessor_133",
                        "POSITION": "accessor_131",
                        "TEXCOORD_0": "accessor_135"
                    },
                    "indices": "accessor_129",
                    "material": "ID7",
                    "mode": 4
                }
            ]
        },
        "ID5": {
            "name": "ID5",
            "primitives": [
                {
                    "attributes": {
                        "NORMAL": "accessor_25",
                        "POSITION": "accessor_23",
                        "TEXCOORD_0": "accessor_27"
                    },
                    "indices": "accessor_21",
                    "material": "ID7",
                    "mode": 4
                }
            ]
        },
        "ID50": {
            "name": "ID50",
            "primitives": [
                {
                    "attributes": {
                        "NORMAL": "accessor_160",
                        "POSITION": "accessor_158",
                        "TEXCOORD_0": "accessor_162"
                    },
                    "indices": "accessor_156",
                    "material": "ID7",
                    "mode": 4
                }
            ]
        },
        "ID58": {
            "name": "ID58",
            "primitives": [
                {
                    "attributes": {
                        "NORMAL": "accessor_187",
                        "POSITION": "accessor_185",
                        "TEXCOORD_0": "accessor_189"
                    },
                    "indices": "accessor_183",
                    "material": "ID60",
                    "mode": 4
                }
            ]
        },
        "ID71": {
            "name": "ID71",
            "primitives": [
                {
                    "attributes": {
                        "NORMAL": "accessor_214",
                        "POSITION": "accessor_212",
                        "TEXCOORD_0": "accessor_216"
                    },
                    "indices": "accessor_210",
                    "material": "ID60",
                    "mode": 4
                }
            ]
        }
    },
    "nodes": {
        "ID3": {
            "children": [
                "ID4"
            ],
            "matrix": [
                -0.941945,
                1.16736,
                0,
                0,
                -1.16736,
                -0.941945,
                0,
                0,
                0,
                0,
                1.5,
                0,
                173.26,
                -329.729,
                0,
                1
            ],
            "name": "instance_0"
        },
        "ID4": {
            "children": [],
            "matrix": [
                1,
                0,
                0,
                0,
                0,
                1,
                0,
                0,
                0,
                0,
                1,
                0,
                0,
                0,
                0,
                1
            ],
            "meshes": [
                "ID5",
                "ID18",
                "ID26",
                "ID34",
                "ID42",
                "ID50",
                "ID58",
                "ID71"
            ],
            "name": "skp95D1"
        },
        "node_0": {
            "children": [
                "node_1",
                "ID3"
            ],
            "matrix": [
                1,
                0,
                0,
                0,
                0,
                1,
                0,
                0,
                0,
                0,
                1,
                0,
                0,
                0,
                0,
                1
            ],
            "name": "SketchUp"
        },
        "node_1": {
            "camera": "ID1",
            "children": [],
            "matrix": [
                -0.0345188,
                0.999404,
                3.46945e-018,
                0,
                -0.786151,
                -0.0271531,
                0.617438,
                0,
                0.61707,
                0.0213132,
                0.78662,
                0,
                915.415,
                -83.6363,
                1109.81,
                1
            ],
            "name": "skp_camera_Last_Saved_SketchUp_View"
        },
        "node_4": {
            "children": [
                "node_0"
            ],
            "matrix": [
                1,
                0,
                0,
                0,
                0,
                0,
                -1,
                0,
                0,
                1,
                0,
                0,
                0,
                0,
                0,
                1
            ],
            "name": "Y_UP_Transform"
        }
    },
    "programs": {
        "program_0": {
            "attributes": [
                "a_normal",
                "a_position",
                "a_texcoord0"
            ],
            "fragmentShader": "\\Users\\14237\\Desktop\\dashuiba0FS",
            "vertexShader": "\\Users\\14237\\Desktop\\dashuiba0VS"
        }
    },
    "samplers": {
        "sampler_0": {
            "magFilter": 9729,
            "minFilter": 9729,
            "wrapS": 10497,
            "wrapT": 10497
        }
    },
    "scene": "defaultScene",
    "scenes": {
        "defaultScene": {
            "nodes": [
                "node_4"
            ]
        }
    },
    "shaders": {
        "\\Users\\14237\\Desktop\\dashuiba0FS": {
            "type": 35632,
            "uri": "data:text/plain;base64,"
        },
        "\\Users\\14237\\Desktop\\dashuiba0VS": {
            "type": 35633,
            "uri": "data:text/plain;base64,"
        }
    },
    "skins": {},
    "techniques": {
        "technique0": {
            "attributes": {
                "a_normal": "normal",
                "a_position": "position",
                "a_texcoord0": "texcoord0"
            },
            "parameters": {
                "diffuse": {
                    "type": 35678
                },
                "modelViewMatrix": {
                    "semantic": "MODELVIEW",
                    "type": 35676
                },
                "normal": {
                    "semantic": "NORMAL",
                    "type": 35665
                },
                "normalMatrix": {
                    "semantic": "MODELVIEWINVERSETRANSPOSE",
                    "type": 35675
                },
                "position": {
                    "semantic": "POSITION",
                    "type": 35665
                },
                "projectionMatrix": {
                    "semantic": "PROJECTION",
                    "type": 35676
                },
                "texcoord0": {
                    "semantic": "TEXCOORD_0",
                    "type": 35664
                }
            },
            "program": "program_0",
            "states": {
                "enable": [
                    2929,
                    2884
                ]
            },
            "uniforms": {
                "u_diffuse": "diffuse",
                "u_modelViewMatrix": "modelViewMatrix",
                "u_normalMatrix": "normalMatrix",
                "u_projectionMatrix": "projectionMatrix"
            }
        }
    },
    "textures": {
        "texture_ID61": {
            "format": 6408,
            "internalFormat": 6408,
            "sampler": "sampler_0",
            "source": "ID61",
            "target": 3553,
            "type": 5121
        },
        "texture_ID8": {
            "format": 6408,
            "internalFormat": 6408,
            "sampler": "sampler_0",
            "source": "ID8",
            "target": 3553,
            "type": 5121
        }
    }
}