{
    "asset" : {
        "generator" : "Khronos glTF Blender I/O v1.8.19",
        "version" : "2.0"
    },
    "scene" : 0,
    "scenes" : [
        {
            "name" : "Scene",
            "nodes" : [
                0
            ]
        }
    ],
    "nodes" : [
        {
            "mesh" : 0,
            "name" : "aa",
            "rotation" : [
                0.7071068286895752,
                0,
                0,
                0.7071067094802856
            ]
        }
    ],
    "materials" : [
        {
            "doubleSided" : true,
            "name" : "surface-style-170-------45-345",
            "pbrMetallicRoughness" : {
                "baseColorFactor" : [
                    0.9686274528503418,
                    0.9686274528503418,
                    0.9686274528503418,
                    1
                ],
                "metallicFactor" : 0,
                "roughnessFactor" : 0.6422291398048401
            }
        },
        {
            "doubleSided" : true,
            "name" : "surface-style-267----------------------------c30",
            "pbrMetallicRoughness" : {
                "baseColorFactor" : [
                    0.7529411911964417,
                    0.7529411911964417,
                    0.7529411911964417,
                    1
                ],
                "metallicFactor" : 0,
                "roughnessFactor" : 0.6422291398048401
            }
        },
        {
            "doubleSided" : true,
            "name" : "surface-style-525----------------------------c50",
            "pbrMetallicRoughness" : {
                "baseColorFactor" : [
                    0.7529411911964417,
                    0.7529411911964417,
                    0.7529411911964417,
                    1
                ],
                "metallicFactor" : 0,
                "roughnessFactor" : 0.6422291398048401
            }
        },
        {
            "doubleSided" : true,
            "name" : "surface-style-611----------hrb400",
            "pbrMetallicRoughness" : {
                "baseColorFactor" : [
                    0.9686274528503418,
                    0.9686274528503418,
                    0.9686274528503418,
                    1
                ],
                "metallicFactor" : 0,
                "roughnessFactor" : 0.7470178008079529
            }
        },
        {
            "doubleSided" : true,
            "name" : "surface-style-3554----------hpb300",
            "pbrMetallicRoughness" : {
                "baseColorFactor" : [
                    0.9686274528503418,
                    0.9686274528503418,
                    0.9686274528503418,
                    1
                ],
                "metallicFactor" : 0,
                "roughnessFactor" : 0.7470178008079529
            }
        },
        {
            "doubleSided" : true,
            "name" : "surface-style-69565----",
            "pbrMetallicRoughness" : {
                "baseColorFactor" : [
                    0.47058823704719543,
                    0.47058823704719543,
                    0.47058823704719543,
                    1
                ],
                "metallicFactor" : 0,
                "roughnessFactor" : 0.7470178008079529
            }
        },
        {
            "doubleSided" : true,
            "name" : "surface-style-69576----------",
            "pbrMetallicRoughness" : {
                "baseColorFactor" : [
                    0,
                    0,
                    0,
                    1
                ],
                "metallicFactor" : 0,
                "roughnessFactor" : 0.7470178008079529
            }
        },
        {
            "doubleSided" : true,
            "name" : "surface-style-69587-------",
            "pbrMetallicRoughness" : {
                "baseColorFactor" : [
                    0.47058823704719543,
                    0.47058823704719543,
                    0.47058823704719543,
                    1
                ],
                "metallicFactor" : 0,
                "roughnessFactor" : 0.7470178008079529
            }
        },
        {
            "doubleSided" : true,
            "name" : "surface-style-69598-------",
            "pbrMetallicRoughness" : {
                "baseColorFactor" : [
                    0.47058823704719543,
                    0.47058823704719543,
                    0.47058823704719543,
                    1
                ],
                "metallicFactor" : 0,
                "roughnessFactor" : 0.7470178008079529
            }
        },
        {
            "doubleSided" : true,
            "name" : "surface-style-69609-------",
            "pbrMetallicRoughness" : {
                "baseColorFactor" : [
                    0.47058823704719543,
                    0.47058823704719543,
                    0.47058823704719543,
                    1
                ],
                "metallicFactor" : 0,
                "roughnessFactor" : 0.7470178008079529
            }
        },
        {
            "doubleSided" : true,
            "name" : "surface-style-69620-------",
            "pbrMetallicRoughness" : {
                "baseColorFactor" : [
                    0.47058823704719543,
                    0.47058823704719543,
                    0.47058823704719543,
                    1
                ],
                "metallicFactor" : 0,
                "roughnessFactor" : 0.7470178008079529
            }
        }
    ],
    "meshes" : [
        {
            "name" : "aa",
            "primitives" : [
                {
                    "attributes" : {
                        "POSITION" : 0,
                        "NORMAL" : 1
                    },
                    "indices" : 2,
                    "material" : 0
                },
                {
                    "attributes" : {
                        "POSITION" : 3,
                        "NORMAL" : 4
                    },
                    "indices" : 5,
                    "material" : 1
                },
                {
                    "attributes" : {
                        "POSITION" : 6,
                        "NORMAL" : 7
                    },
                    "indices" : 8,
                    "material" : 2
                },
                {
                    "attributes" : {
                        "POSITION" : 9,
                        "NORMAL" : 10
                    },
                    "indices" : 11,
                    "material" : 3
                },
                {
                    "attributes" : {
                        "POSITION" : 12,
                        "NORMAL" : 13
                    },
                    "indices" : 14,
                    "material" : 4
                },
                {
                    "attributes" : {
                        "POSITION" : 15,
                        "NORMAL" : 16
                    },
                    "indices" : 17,
                    "material" : 5
                },
                {
                    "attributes" : {
                        "POSITION" : 18,
                        "NORMAL" : 19
                    },
                    "indices" : 20,
                    "material" : 6
                },
                {
                    "attributes" : {
                        "POSITION" : 21,
                        "NORMAL" : 22
                    },
                    "indices" : 23,
                    "material" : 7
                },
                {
                    "attributes" : {
                        "POSITION" : 24,
                        "NORMAL" : 25
                    },
                    "indices" : 26,
                    "material" : 8
                },
                {
                    "attributes" : {
                        "POSITION" : 27,
                        "NORMAL" : 28
                    },
                    "indices" : 29,
                    "material" : 9
                },
                {
                    "attributes" : {
                        "POSITION" : 30,
                        "NORMAL" : 31
                    },
                    "indices" : 32,
                    "material" : 10
                }
            ]
        }
    ],
    "accessors" : [
        {
            "bufferView" : 0,
            "componentType" : 5126,
            "count" : 768,
            "max" : [
                -25.949880599975586,
                0.20000000298023224,
                0.9848460555076599
            ],
            "min" : [
                -28.949880599975586,
                -5.551115123125783e-16,
                -1.0151538848876953
            ],
            "type" : "VEC3"
        },
        {
            "bufferView" : 1,
            "componentType" : 5126,
            "count" : 768,
            "type" : "VEC3"
        },
        {
            "bufferView" : 2,
            "componentType" : 5123,
            "count" : 1872,
            "type" : "SCALAR"
        },
        {
            "bufferView" : 3,
            "componentType" : 5126,
            "count" : 24,
            "max" : [
                -25.949880599975586,
                0.20000000298023224,
                0.9848460555076599
            ],
            "min" : [
                -28.949880599975586,
                0.10000000149011612,
                -1.0151538848876953
            ],
            "type" : "VEC3"
        },
        {
            "bufferView" : 4,
            "componentType" : 5126,
            "count" : 24,
            "type" : "VEC3"
        },
        {
            "bufferView" : 5,
            "componentType" : 5123,
            "count" : 36,
            "type" : "SCALAR"
        },
        {
            "bufferView" : 6,
            "componentType" : 5126,
            "count" : 260,
            "max" : [
                -26.137075424194336,
                1.7999999523162842,
                0.35545897483825684
            ],
            "min" : [
                -28.757888793945312,
                0.20000000298023224,
                -0.2608826756477356
            ],
            "type" : "VEC3"
        },
        {
            "bufferView" : 7,
            "componentType" : 5126,
            "count" : 260,
            "type" : "VEC3"
        },
        {
            "bufferView" : 8,
            "componentType" : 5123,
            "count" : 744,
            "type" : "SCALAR"
        },
        {
            "bufferView" : 9,
            "componentType" : 5126,
            "count" : 29060,
            "max" : [
                -26.177104949951172,
                2.8025355339050293,
                0.2698446810245514
            ],
            "min" : [
                -26.96639060974121,
                0.19963663816452026,
                -0.21918585896492004
            ],
            "type" : "VEC3"
        },
        {
            "bufferView" : 10,
            "componentType" : 5126,
            "count" : 29060,
            "type" : "VEC3"
        },
        {
            "bufferView" : 11,
            "componentType" : 5123,
            "count" : 113496,
            "type" : "SCALAR"
        },
        {
            "bufferView" : 12,
            "componentType" : 5126,
            "count" : 33440,
            "max" : [
                -26.682588577270508,
                1.760266661643982,
                0.33098235726356506
            ],
            "min" : [
                -27.408287048339844,
                0.2523554265499115,
                -1.5714819431304932
            ],
            "type" : "VEC3"
        },
        {
            "bufferView" : 13,
            "componentType" : 5126,
            "count" : 33440,
            "type" : "VEC3"
        },
        {
            "bufferView" : 14,
            "componentType" : 5123,
            "count" : 158208,
            "type" : "SCALAR"
        },
        {
            "bufferView" : 15,
            "componentType" : 5126,
            "count" : 1032,
            "max" : [
                -26.08257484436035,
                1.7999999523162842,
                0.3930109441280365
            ],
            "min" : [
                -28.814172744750977,
                0.20000000298023224,
                -0.29043295979499817
            ],
            "type" : "VEC3"
        },
        {
            "bufferView" : 16,
            "componentType" : 5126,
            "count" : 1032,
            "type" : "VEC3"
        },
        {
            "bufferView" : 17,
            "componentType" : 5123,
            "count" : 1548,
            "type" : "SCALAR"
        },
        {
            "bufferView" : 18,
            "componentType" : 5126,
            "count" : 2580,
            "max" : [
                -26.079761505126953,
                1.7999999523162842,
                0.39501848816871643
            ],
            "min" : [
                -28.816986083984375,
                0.20000000298023224,
                -0.2932458817958832
            ],
            "type" : "VEC3"
        },
        {
            "bufferView" : 19,
            "componentType" : 5126,
            "count" : 2580,
            "type" : "VEC3"
        },
        {
            "bufferView" : 20,
            "componentType" : 5123,
            "count" : 5160,
            "type" : "SCALAR"
        },
        {
            "bufferView" : 21,
            "componentType" : 5126,
            "count" : 18540,
            "max" : [
                -26.05112648010254,
                1.60360848903656,
                0.4667327404022217
            ],
            "min" : [
                -28.848634719848633,
                0.4538915455341339,
                -0.36499568819999695
            ],
            "type" : "VEC3"
        },
        {
            "bufferView" : 22,
            "componentType" : 5126,
            "count" : 18540,
            "type" : "VEC3"
        },
        {
            "bufferView" : 23,
            "componentType" : 5123,
            "count" : 36000,
            "type" : "SCALAR"
        },
        {
            "bufferView" : 24,
            "componentType" : 5126,
            "count" : 4320,
            "max" : [
                -26.045143127441406,
                1.5362499952316284,
                0.48682498931884766
            ],
            "min" : [
                -28.854618072509766,
                0.5212500095367432,
                -0.3770284056663513
            ],
            "type" : "VEC3"
        },
        {
            "bufferView" : 25,
            "componentType" : 5126,
            "count" : 4320,
            "type" : "VEC3"
        },
        {
            "bufferView" : 26,
            "componentType" : 5123,
            "count" : 5940,
            "type" : "SCALAR"
        },
        {
            "bufferView" : 27,
            "componentType" : 5126,
            "count" : 6366,
            "max" : [
                -25.864294052124023,
                1.553568720817566,
                0.0361744724214077
            ],
            "min" : [
                -29.03495216369629,
                0.5035686492919922,
                -0.5451759696006775
            ],
            "type" : "VEC3"
        },
        {
            "bufferView" : 28,
            "componentType" : 5126,
            "count" : 6366,
            "type" : "VEC3"
        },
        {
            "bufferView" : 29,
            "componentType" : 5123,
            "count" : 6498,
            "type" : "SCALAR"
        },
        {
            "bufferView" : 30,
            "componentType" : 5126,
            "count" : 4160,
            "max" : [
                -25.781551361083984,
                1.8200334310531616,
                0.41043803095817566
            ],
            "min" : [
                -29.12001609802246,
                0.20000000298023224,
                -0.5461747050285339
            ],
            "type" : "VEC3"
        },
        {
            "bufferView" : 31,
            "componentType" : 5126,
            "count" : 4160,
            "type" : "VEC3"
        },
        {
            "bufferView" : 32,
            "componentType" : 5123,
            "count" : 6324,
            "type" : "SCALAR"
        }
    ],
    "bufferViews" : [
        {
            "buffer" : 0,
            "byteLength" : 9216,
            "byteOffset" : 0
        },
        {
            "buffer" : 0,
            "byteLength" : 9216,
            "byteOffset" : 9216
        },
        {
            "buffer" : 0,
            "byteLength" : 3744,
            "byteOffset" : 18432
        },
        {
            "buffer" : 0,
            "byteLength" : 288,
            "byteOffset" : 22176
        },
        {
            "buffer" : 0,
            "byteLength" : 288,
            "byteOffset" : 22464
        },
        {
            "buffer" : 0,
            "byteLength" : 72,
            "byteOffset" : 22752
        },
        {
            "buffer" : 0,
            "byteLength" : 3120,
            "byteOffset" : 22824
        },
        {
            "buffer" : 0,
            "byteLength" : 3120,
            "byteOffset" : 25944
        },
        {
            "buffer" : 0,
            "byteLength" : 1488,
            "byteOffset" : 29064
        },
        {
            "buffer" : 0,
            "byteLength" : 348720,
            "byteOffset" : 30552
        },
        {
            "buffer" : 0,
            "byteLength" : 348720,
            "byteOffset" : 379272
        },
        {
            "buffer" : 0,
            "byteLength" : 226992,
            "byteOffset" : 727992
        },
        {
            "buffer" : 0,
            "byteLength" : 401280,
            "byteOffset" : 954984
        },
        {
            "buffer" : 0,
            "byteLength" : 401280,
            "byteOffset" : 1356264
        },
        {
            "buffer" : 0,
            "byteLength" : 316416,
            "byteOffset" : 1757544
        },
        {
            "buffer" : 0,
            "byteLength" : 12384,
            "byteOffset" : 2073960
        },
        {
            "buffer" : 0,
            "byteLength" : 12384,
            "byteOffset" : 2086344
        },
        {
            "buffer" : 0,
            "byteLength" : 3096,
            "byteOffset" : 2098728
        },
        {
            "buffer" : 0,
            "byteLength" : 30960,
            "byteOffset" : 2101824
        },
        {
            "buffer" : 0,
            "byteLength" : 30960,
            "byteOffset" : 2132784
        },
        {
            "buffer" : 0,
            "byteLength" : 10320,
            "byteOffset" : 2163744
        },
        {
            "buffer" : 0,
            "byteLength" : 222480,
            "byteOffset" : 2174064
        },
        {
            "buffer" : 0,
            "byteLength" : 222480,
            "byteOffset" : 2396544
        },
        {
            "buffer" : 0,
            "byteLength" : 72000,
            "byteOffset" : 2619024
        },
        {
            "buffer" : 0,
            "byteLength" : 51840,
            "byteOffset" : 2691024
        },
        {
            "buffer" : 0,
            "byteLength" : 51840,
            "byteOffset" : 2742864
        },
        {
            "buffer" : 0,
            "byteLength" : 11880,
            "byteOffset" : 2794704
        },
        {
            "buffer" : 0,
            "byteLength" : 76392,
            "byteOffset" : 2806584
        },
        {
            "buffer" : 0,
            "byteLength" : 76392,
            "byteOffset" : 2882976
        },
        {
            "buffer" : 0,
            "byteLength" : 12996,
            "byteOffset" : 2959368
        },
        {
            "buffer" : 0,
            "byteLength" : 49920,
            "byteOffset" : 2972364
        },
        {
            "buffer" : 0,
            "byteLength" : 49920,
            "byteOffset" : 3022284
        },
        {
            "buffer" : 0,
            "byteLength" : 12648,
            "byteOffset" : 3072204
        }
    ],
    "buffers" : [
        {
            "byteLength" : 3084852,
            "uri" : "data:application/octet-stream;base64,"
        }
    ]
}
